<svg xmlns="http://www.w3.org/2000/svg" width="18" height="18" viewBox="0 0 18 18">
  <defs>
    <style>
      .cls-1 {
        fill: none;
      }

      .cls-2 {
        fill: #20252d;
        stroke: rgba(0,0,0,0);
      }
    </style>
  </defs>
  <g id="Bytom2Vapor" transform="translate(-61 -5)">
    <rect id="Rectangle_3694" data-name="Rectangle 3694" class="cls-1" width="18" height="18" transform="translate(61 5)"/>
    <path id="Path_20330" data-name="Path 20330" class="cls-2" d="M-3121.729-269.8l-3.553-3.553h0l.925-.926,3.553,3.554a.667.667,0,0,1,.016.9.646.646,0,0,1-.466.214h-.016A.645.645,0,0,1-3121.729-269.8Zm-11.876-.715h0l4.287-4.287.9.9-4.284,4.285Zm7.421-3.74-.935-.936.926-.927.936.937-.926.926h0Zm-1.839-1.839-.934-.935.926-.927.936.936-.926.926h0Zm6.118-1.314v-2.981l-2.956,2.957-.919-.919,2.956-2.957h-2.98v-1.3h5.2v5.2Zm-7.956-.524-3.541-3.543a.652.652,0,0,1,0-.92l.006-.008a.652.652,0,0,1,.911-.009l3.551,3.552-.926.927h0Z" transform="translate(3197.105 290.109)"/>
  </g>
</svg>
