<svg xmlns="http://www.w3.org/2000/svg" width="18" height="18" viewBox="0 0 18 18">
  <defs>
    <style>
      .cls-1 {
        fill: none;
      }

      .cls-2 {
        fill: #20252d;
        stroke: rgba(0,0,0,0);
      }
    </style>
  </defs>
  <g id="Vapor2Bytom" transform="translate(-61 -5)">
    <rect id="Rectangle_3694" data-name="Rectangle 3694" class="cls-1" width="18" height="18" transform="translate(61 5)"/>
    <path id="Path_20331" data-name="Path 20331" class="cls-2" d="M-3132.482-282.418l3.553,3.553h0l-.925.926-3.553-3.554a.667.667,0,0,1-.016-.9.646.646,0,0,1,.466-.214h.016A.645.645,0,0,1-3132.482-282.418Zm11.876.715h0l-4.287,4.287-.9-.9,4.284-4.285Zm-7.421,3.74.935.936-.926.927-.936-.937.926-.926h0Zm1.839,1.839.934.935-.926.927-.936-.936.926-.926h0Zm-6.118,1.314v2.981l2.956-2.957.919.919-2.956,2.957h2.98v1.3h-5.2v-5.2Zm7.956.524,3.541,3.543a.652.652,0,0,1,0,.92l-.006.008a.652.652,0,0,1-.911.009l-3.551-3.552.926-.927h0Z" transform="translate(3197.105 290.109)"/>
  </g>
</svg>
