<svg xmlns="http://www.w3.org/2000/svg" xmlns:xlink="http://www.w3.org/1999/xlink" viewBox="0 0 18 18">
  <defs>
    <style>
      .cls-1 {
        fill: none;
      }

      .cls-2 {
        clip-path: url(#clip-path);
      }

      .cls-3 {
        fill: #20252d;
      }
    </style>
    <clipPath id="clip-path">
      <rect id="矩形_3673" data-name="矩形 3673" class="cls-1" width="18" height="18" transform="translate(61 117)"/>
    </clipPath>
  </defs>
  <g id="retire" transform="translate(-61 -117)">
    <g id="蒙版组_66" data-name="蒙版组 66" class="cls-2">
      <g id="组_2967" data-name="组 2967" transform="translate(-183.7 -1123.178)">
        <path id="路径_4955" data-name="路径 4955" class="cls-3" d="M3.508,0H2.226V2.159H0V3.441H2.226V5.6H3.508V3.441H5.741V2.159H3.508Z" transform="translate(247.915 1250.93) rotate(45)"/>
        <path id="减去_14" data-name="减去 14" class="cls-3" d="M9.485,13.2h0L6.5,11.5,4.29,12.93V11.6L5.9,10.489V7.835L3.624,6.5,1.338,7.784v.924H0V7.166L2.99,5.391V2.01L6.5,0,10,2.01V5.32l2.99,1.846v4.021L9.486,13.2ZM9.4,6.6,7.161,7.883v2.573L9.4,11.743l2.242-1.286V7.883L9.4,6.6ZM6.541,1.408l-2.3,1.318V5.363l2.3,1.318,2.3-1.318V2.727l-2.3-1.318Z" transform="translate(247.272 1242.678)"/>
      </g>
    </g>
  </g>
</svg>
