<?xml version="1.0" standalone="no"?><!DOCTYPE svg PUBLIC "-//W3C//DTD SVG 1.1//EN" "http://www.w3.org/Graphics/SVG/1.1/DTD/svg11.dtd"><svg t="1536908540612" class="icon" style="" viewBox="0 0 1024 1024" version="1.1" xmlns="http://www.w3.org/2000/svg" p-id="1845" xmlns:xlink="http://www.w3.org/1999/xlink" width="200" height="200"><defs><style type="text/css"></style></defs><path d="M515.479165 66.922754c-243.541521 0-441.035275 197.391426-441.035276 441.035275s197.391426 441.035275 441.035276 441.035276 441.035275-197.391426 441.035275-441.035276-197.493754-441.035275-441.035275-441.035275z m266.770061 336.251024L486.315579 699.107425c-7.776956 7.776956-17.907465 11.665434-28.037973 11.665434-10.130509 0-20.261017-3.888478-28.037974-11.665434L285.035675 554.005796c-15.553912-15.451584-15.553912-40.624363 0-56.075947 15.553912-15.553912 40.624363-15.553912 56.075947 0l117.063655 117.063656 267.793345-267.793345c15.553912-15.553912 40.624363-15.553912 56.075947 0 15.656241 15.349256 15.656241 40.522035 0.204657 55.973618z" p-id="1846" fill="#dff0d3"></path></svg>