<svg xmlns="http://www.w3.org/2000/svg" width="18" height="18" viewBox="0 0 18 18">
  <defs>
    <style>
      .cls-1 {
        fill: none;
      }

      .cls-2 {
        fill: #20252d;
      }
    </style>
  </defs>
  <g id="vote-cancel" transform="translate(-61 -5)">
    <rect id="Rectangle_3694" data-name="Rectangle 3694" class="cls-1" width="18" height="18" transform="translate(61 5)"/>
    <path id="inbox_close" class="cls-2" d="M151.7,142.6h-.65V140h-9.1v2.6h-.65l-1.3,3.846V153h13v-6.554Zm-8.45-1.3h6.5v5.2H147.8v2.6h-2.6v-2.6h-1.95Zm-1.3,3.2v2h-.65Zm9.75,7.2H141.3v-3.9h2.6v2.6h5.2v-2.6h2.6Zm-.65-5.2v-2l.65,2Zm-5.469-.762-.919-.919.919-.919-.919-.919.919-.919.919.919.919-.919.919.919-.919.919.919.919-.919.919-.919-.919Z" transform="translate(-76.5 -132.5)"/>
  </g>
</svg>
