<svg width="64" height="64" viewBox="0 0 64 64" fill="none" xmlns="http://www.w3.org/2000/svg">
<rect width="64" height="64" rx="32" fill="#333333"/>
<path d="M21.9488 42.8083C21.571 42.7239 21.2758 42.4291 21.191 42.0514L20.4263 38.645C20.3514 38.3111 20.4523 37.9621 20.694 37.7198L28.4905 29.9029C28.8801 29.5122 28.8797 28.8797 28.4896 28.4896L26.4819 26.4819C26.0914 26.0914 25.4582 26.0914 25.0677 26.4819L15.3891 36.1606C15.1468 36.4028 15.0454 36.7522 15.1204 37.0865L17.142 46.1011C17.2266 46.4786 17.5214 46.7734 17.8989 46.858L26.9135 48.8796C27.2478 48.9546 27.5972 48.8532 27.8394 48.6109L28.6283 47.8221C29.0188 47.4316 29.0188 46.7984 28.6283 46.4079L26.1199 43.8995C25.9857 43.7653 25.8161 43.6721 25.6308 43.6307L21.9488 42.8083Z" fill="white"/>
<path d="M37.0903 15.1213C36.7539 15.0458 36.4023 15.149 36.16 15.3943L35.3861 16.1779C34.9997 16.5691 35.0017 17.1989 35.3905 17.5877L37.9036 20.1009C38.0376 20.2348 38.2068 20.328 38.3917 20.3695L42.0513 21.191C42.4289 21.2758 42.7238 21.571 42.8082 21.9488L43.5741 25.378C43.6487 25.7121 43.5473 26.0611 43.3052 26.3031L35.5112 34.0971C35.1207 34.4877 35.1207 35.1208 35.5112 35.5113L37.5179 37.5181C37.9085 37.9086 38.5416 37.9086 38.9322 37.5181L48.6108 27.8394C48.8531 27.5972 48.9544 27.2478 48.8795 26.9135L46.8579 17.8989C46.7732 17.5214 46.4784 17.2266 46.1009 17.142L37.0903 15.1213Z" fill="white"/>
<path d="M20.1005 26.1199C20.2347 25.9857 20.3279 25.8161 20.3693 25.6308L21.1915 21.9495C21.276 21.5713 21.5713 21.276 21.9495 21.1915L25.378 20.4258C25.7121 20.3512 26.0611 20.4526 26.3031 20.6946L34.0971 28.4887C34.4877 28.8792 35.1208 28.8792 35.5113 28.4886L37.5181 26.4819C37.9086 26.0914 37.9086 25.4582 37.5181 25.0677L27.8394 15.3891C27.5972 15.1468 27.2478 15.0454 26.9135 15.1204L17.8989 17.142C17.5214 17.2266 17.2266 17.5214 17.142 17.8989L15.1204 26.9135C15.0454 27.2478 15.1468 27.5972 15.3891 27.8394L16.1779 28.6283C16.5684 29.0188 17.2016 29.0188 17.5921 28.6283L20.1005 26.1199Z" fill="white"/>
<path d="M43.9012 37.9032C43.766 38.0375 43.672 38.2076 43.6302 38.3936L42.8089 42.0521C42.7242 42.4295 42.4295 42.7241 42.0522 42.8088L38.6451 43.5737C38.3112 43.6487 37.9621 43.5477 37.7199 43.306L29.903 35.5095C29.5123 35.1199 28.8798 35.1203 28.4897 35.5104L26.482 37.5181C26.0915 37.9086 26.0915 38.5418 26.482 38.9323L36.1607 48.611C36.4029 48.8532 36.7523 48.9546 37.0866 48.8796L46.1012 46.858C46.4787 46.7734 46.7735 46.4786 46.8581 46.1011L48.8797 37.0865C48.9547 36.7522 48.8533 36.4028 48.611 36.1606L47.8431 35.3926C47.4535 35.003 46.8222 35.002 46.4312 35.3902L43.9012 37.9032Z" fill="white"/>
</svg>
