<svg xmlns="http://www.w3.org/2000/svg" xmlns:xlink="http://www.w3.org/1999/xlink" width="106" height="28" viewBox="0 0 106 28">
  <defs>
    <style>
      .cls-1 {
        fill: none;
      }

      .cls-2 {
        fill: #247cf6;
      }

      .cls-3 {
        fill: url(#linear-gradient);
      }

      .cls-4 {
        fill: url(#linear-gradient-2);
      }

      .cls-5 {
        fill: url(#linear-gradient-3);
      }
    </style>
    <linearGradient id="linear-gradient" x1="0.655" y1="1" x2="0.379" y2="-0.083" gradientUnits="objectBoundingBox">
      <stop offset="0" stop-color="#a5cbff"/>
      <stop offset="1" stop-color="#b4d4ff"/>
    </linearGradient>
    <linearGradient id="linear-gradient-2" x1="0.643" y1="1.048" x2="0.402" y2="-0.696" gradientUnits="objectBoundingBox">
      <stop offset="0" stop-color="#4090ff"/>
      <stop offset="1" stop-color="#a5cbff"/>
    </linearGradient>
    <linearGradient id="linear-gradient-3" x1="0.5" x2="0.5" y2="1" gradientUnits="objectBoundingBox">
      <stop offset="0" stop-color="#2c85ff"/>
      <stop offset="1" stop-color="#035bd4"/>
    </linearGradient>
  </defs>
  <g id="Logo-Vapor" transform="translate(-30 -16)">
    <rect id="Rectangle_4665" data-name="Rectangle 4665" class="cls-1" width="106" height="28" transform="translate(30 16)"/>
    <g id="Logo-Vapor-2" data-name="Logo-Vapor" transform="translate(-138 -157.255)">
      <g id="Group_8530" data-name="Group 8530" transform="translate(168 175)">
        <path id="Path_26117" data-name="Path 26117" class="cls-2" d="M393.227,444.664a60.827,60.827,0,0,0,8.265,2.224,60.982,60.982,0,0,0-7.454,4.143,60.871,60.871,0,0,1-16.128-5.568,61.047,61.047,0,0,1,7.469-4.149,61.378,61.378,0,0,1-7.319-4.413,60.923,60.923,0,0,1,7.99-3.065,61.577,61.577,0,0,1-6.653-5.4,60.8,60.8,0,0,1,8.34-1.917,61.573,61.573,0,0,0,13.969,9.811,60.88,60.88,0,0,0-8.342,1.919,60.937,60.937,0,0,0,7.84,3.347A60.758,60.758,0,0,0,393.227,444.664Z" transform="translate(-377.91 -426.52)"/>
        <path id="Path_26114" data-name="Path 26114" class="cls-3" d="M408.549,436.331a60.878,60.878,0,0,0-8.342,1.919,61.588,61.588,0,0,1-13.968-9.813,60.794,60.794,0,0,1,8.34-1.917,61.572,61.572,0,0,0,13.969,9.811Z" transform="translate(-384.753 -426.52)"/>
        <path id="Path_26115" data-name="Path 26115" class="cls-4" d="M401.895,475.27a60.748,60.748,0,0,0-7.977,3.067,60.566,60.566,0,0,1-7.849-3.349,61.389,61.389,0,0,1-7.319-4.413,60.92,60.92,0,0,1,7.99-3.065,61.307,61.307,0,0,0,15.155,7.76Z" transform="translate(-378.6 -460.193)"/>
        <path id="Path_26116" data-name="Path 26116" class="cls-5" d="M401.492,514.973a60.961,60.961,0,0,0-7.454,4.143,60.884,60.884,0,0,1-16.128-5.568,61.055,61.055,0,0,1,7.469-4.149,60.92,60.92,0,0,0,16.114,5.573Z" transform="translate(-377.91 -494.605)"/>
      </g>
      <path id="Path_25880" data-name="Path 25880" d="M-173.768-102.276h-3.41l-3.363,10.911-3.363-10.911h-3.386l5.526,16.743h2.446Zm10.111,16.743V-93.6c0-2.869-1.787-4.327-5.22-4.327-2.046,0-3.222.376-4.421,1.693l1.952,1.9a2.63,2.63,0,0,1,2.352-1.011c1.623,0,2.281.588,2.281,1.928v.611h-2.892c-2.845,0-4.186,1.6-4.186,3.551A3.925,3.925,0,0,0-172.78-86.5a4.179,4.179,0,0,0,3.127,1.082,3.723,3.723,0,0,0,3.01-1.176v1.058Zm-3.057-4.515a2.014,2.014,0,0,1-.447,1.552,2.423,2.423,0,0,1-1.928.588c-1.2,0-1.764-.564-1.764-1.411,0-.87.611-1.387,1.717-1.387h2.422Zm16.6-1.623c0-1.834-.024-3.927-1.246-5.15a4.267,4.267,0,0,0-2.986-1.105,3.725,3.725,0,0,0-3.057,1.293v-1.152h-2.963v16.743h3.057v-5.573a3.623,3.623,0,0,0,2.963,1.223,4.267,4.267,0,0,0,2.986-1.105C-150.135-87.721-150.112-89.837-150.112-91.671Zm-3.057,0c0,2-.235,3.527-2.069,3.527s-2.069-1.528-2.069-3.527.235-3.5,2.069-3.5S-153.169-93.67-153.169-91.671Zm15.826,0c0-2.21-.282-3.6-1.387-4.75a5.078,5.078,0,0,0-3.809-1.5,5.021,5.021,0,0,0-3.786,1.5c-1.105,1.152-1.387,2.54-1.387,4.75,0,2.234.282,3.621,1.387,4.774a5.021,5.021,0,0,0,3.786,1.5,5.078,5.078,0,0,0,3.809-1.5C-137.625-88.05-137.343-89.437-137.343-91.671Zm-3.057,0c0,1.27-.071,2.352-.705,2.986a1.933,1.933,0,0,1-1.434.541,1.877,1.877,0,0,1-1.411-.541c-.635-.635-.705-1.717-.705-2.986s.071-2.328.705-2.963a1.877,1.877,0,0,1,1.411-.541,1.933,1.933,0,0,1,1.434.541C-140.471-94-140.4-92.941-140.4-91.671Zm14.932-5.1a3.7,3.7,0,0,0-2.892-1.152,4.147,4.147,0,0,0-3.08,1.317v-1.176h-2.986v12.251h3.057v-7.384a2.036,2.036,0,0,1,1.975-2.257,2.037,2.037,0,0,1,1.623.729Z" transform="translate(384.719 278.953)"/>
    </g>
  </g>
</svg>
