<svg xmlns="http://www.w3.org/2000/svg" viewBox="-699 -3092 533.335 127.311">
  <defs>
    <style>
      .cls-1 {
        fill: #fff;
      }
    </style>
  </defs>
  <path id="Union_33" data-name="Union 33" class="cls-1" d="M36.136,85.492,48.552,73.014l34.654,34.654,19.335-5.127,3.521-13.157,16.308-16.369,4.942,4.941-10.44,38.916-38.916,10.44Zm-25.7,31.379L0,77.955l7.845-7.844L41.819,36.136,54.235,48.552,19.643,83.206l5.127,19.335,13.157,3.521,16.307,16.308-4.88,4.942ZM383.6,86.233V43.3l33.233-21.311L450.067,43.3V86.233l-33.233,21.311ZM396.82,50.591V79.068l19.952,12.786,19.952-12.786V50.591L416.772,37.8Zm-61.277,52.877V40.4H311.513V26.068h62.451V40.4H349.935v63.069Zm-77.215,0V64.552L229.975,36.2l10.193-10.13,25.7,25.7,26.376-26.376,10.13,10.13L275.995,61.895l-3.335,3.336v38.237Zm-74.867,0V89.136H198.04l10.006-9.945-7.227-7.227H183.461V57.633H201l7.1-7.166L198.04,40.4H183.461V26.068h20.569l24.338,24.338-.123.062.123.123L214.038,64.86,218.177,69l10.192,10.13-.061.062h.061l-10.192,10.13-14.146,14.146Zm-20.2,0v-77.4h14.331v77.4Zm303.051-1.421V29.156l1.3-1.236h13.1L499.855,47.07,519,27.921h13.28l1.05,1.05v72.767H519V48.181L509.985,57.2l-10.13,10.192L489.662,57.2l-8.957-8.957v53.8ZM73.076,78.7l34.592-34.654-5.127-19.273L89.383,21.249,73.013,4.942,77.955,0l38.916,10.439,10.44,38.916L85.492,91.174ZM408.062,64.8a8.772,8.772,0,1,1,8.772,8.771A8.8,8.8,0,0,1,408.062,64.8ZM44.1,19.643,24.771,24.771,21.249,37.928,4.942,54.235,0,49.355,10.439,10.439,49.355,0l7.783,7.845L91.174,41.819,78.7,54.235Z" transform="translate(-699 -3092)"/>
</svg>
