<svg width="20" height="14" viewBox="0 0 20 14" fill="none" xmlns="http://www.w3.org/2000/svg">
<path fill-rule="evenodd" clip-rule="evenodd" d="M9 10H5C4.45 10 4 9.55 4 9C4 8.45 4.45 8 5 8H9C9.55 8 10 8.45 10 9C10 9.55 9.55 10 9 10ZM15 10H13C12.45 10 12 9.55 12 9C12 8.45 12.45 8 13 8H15C15.55 8 16 8.45 16 9C16 9.55 15.55 10 15 10ZM18 11C18 11.551 17.552 12 17 12H3C2.448 12 2 11.551 2 11V6H18V11ZM2 3C2 2.449 2.448 2 3 2H17C17.552 2 18 2.449 18 3V4H2V3ZM17 0H3C1.346 0 0 1.346 0 3V11C0 12.654 1.346 14 3 14H17C18.654 14 20 12.654 20 11V3C20 1.346 18.654 0 17 0Z" fill="#78808D"/>
</svg>
