<svg width="20" height="20" viewBox="0 0 20 20" fill="none" xmlns="http://www.w3.org/2000/svg">
<path fill-rule="evenodd" clip-rule="evenodd" d="M18.8213 12.0576C18.2983 11.8716 17.7283 12.1446 17.5453 12.6666C16.4173 15.8566 13.3843 17.9996 10.0003 17.9996C5.58931 17.9996 2.00031 14.4116 2.00031 9.9996C2.00031 6.6156 4.14331 3.5826 7.33331 2.4546C7.85431 2.2716 8.12731 1.7006 7.94331 1.1796C7.75931 0.6596 7.1883 0.3856 6.6673 0.5706C2.67931 1.9796 0.000305176 5.7686 0.000305176 9.9996C0.000305176 15.5136 4.48631 19.9996 10.0003 19.9996C14.2313 19.9996 18.0203 17.3216 19.4303 13.3326C19.6143 12.8126 19.3423 12.2416 18.8213 12.0576ZM12 8V2.071C15.061 2.511 17.489 4.938 17.929 8H12ZM11 0C10.448 0 10 0.447 10 1V9C10 9.553 10.448 10 11 10H19C19.552 10 20 9.553 20 9C20 4.037 15.962 0 11 0Z" fill="#78808D"/>
</svg>
