<svg width="18" height="16" viewBox="0 0 18 16" fill="none" xmlns="http://www.w3.org/2000/svg">
<path fill-rule="evenodd" clip-rule="evenodd" d="M16 12.4023L10 13.7503V3.5973L16 2.2503V12.4023ZM2 2.2503L8 3.5973V13.7503L2 12.4023V2.2503ZM17.625 0.218302C17.387 0.0293019 17.077 -0.0426981 16.78 0.0243019L9 1.7723L1.22 0.0243019C0.922 -0.0436981 0.613 0.0293019 0.375 0.218302C0.138 0.409302 0 0.696302 0 1.0003V13.2023C0 13.6703 0.324 14.0753 0.78 14.1773L8.78 15.9753C8.854 15.9923 8.927 16.0003 9 16.0003C9.073 16.0003 9.146 15.9923 9.22 15.9753L17.22 14.1773C17.676 14.0753 18 13.6703 18 13.2023V1.0003C18 0.696302 17.862 0.409302 17.625 0.218302Z" fill="#78808D"/>
</svg>
