<svg width="20" height="20" viewBox="0 0 20 20" fill="none" xmlns="http://www.w3.org/2000/svg">
<path fill-rule="evenodd" clip-rule="evenodd" d="M12.293 5.20701C11.902 4.81601 11.902 4.18401 12.293 3.79301L15.293 0.793006C15.684 0.402006 16.316 0.402006 16.707 0.793006L19.707 3.79301C19.902 3.98801 20 4.24401 20 4.50001C20 4.75601 19.902 5.01201 19.707 5.20701C19.316 5.59801 18.684 5.59801 18.293 5.20701L17 3.91401V15.91C17 17.89 15.417 19.5 13.471 19.5H11C10.447 19.5 10 19.053 10 18.5C10 17.947 10.447 17.5 11 17.5H13.471C14.314 17.5 15 16.787 15 15.91V3.91401L13.707 5.20701C13.316 5.59801 12.684 5.59801 12.293 5.20701ZM3.00001 16.0858V4.08981C3.00001 2.11081 4.58301 0.499806 6.52901 0.499806H9.00001C9.55301 0.499806 10 0.946806 10 1.49981C10 2.05281 9.55301 2.49981 9.00001 2.49981H6.52901C5.68701 2.49981 5.00001 3.21281 5.00001 4.08981V16.0858L6.29301 14.7928C6.68401 14.4028 7.31601 14.4028 7.70701 14.7928C7.90201 14.9878 8.00001 15.2438 8.00001 15.4998C8.00001 15.7558 7.90201 16.0118 7.70701 16.2068L4.70701 19.2068C4.31601 19.5978 3.68401 19.5978 3.29301 19.2068L0.293006 16.2068C-0.0979941 15.8168 -0.0979941 15.1838 0.293006 14.7928C0.684006 14.4028 1.31601 14.4028 1.70701 14.7928L3.00001 16.0858Z" fill="#78808D"/>
</svg>
