<svg xmlns="http://www.w3.org/2000/svg" xmlns:xlink="http://www.w3.org/1999/xlink" width="180" height="180" viewBox="0 0 180 180">
  <defs>
    <clipPath id="clip-backup-active">
      <rect width="180" height="180"/>
    </clipPath>
  </defs>
  <g id="backup-active" clip-path="url(#clip-backup-active)">
    <g id="backup-active-2" data-name="backup-active">
      <rect id="Rectangle_3739" data-name="Rectangle 3739" width="180" height="180" fill="none"/>
      <g id="Group_2526" data-name="Group 2526">
        <path id="Path_4790" data-name="Path 4790" d="M75.6-87.606,3.606-46.041,75.6-4.476l71.993-41.565Z" transform="translate(14.394 177.736)" fill="#c0defc" fill-rule="evenodd"/>
        <path id="Path_4791" data-name="Path 4791" d="M147.591-46.041,75.6-4.476,3.606-46.041,75.6-87.606Zm-136.068,0L75.6-9.047l64.076-36.994L75.6-83.035Z" transform="translate(14.394 177.736)" fill="#1977d6" fill-rule="evenodd"/>
        <path id="Path_4792" data-name="Path 4792" d="M75.6-131.606,3.606-90.041,75.6-48.476l71.993-41.565Z" transform="translate(14.394 178.192)" fill="#d0e8fa" fill-rule="evenodd"/>
        <path id="Path_4793" data-name="Path 4793" d="M147.591-90.041,75.6-48.476,3.606-90.041,75.6-131.606Zm-136.068,0L75.6-53.047l64.076-36.994L75.6-127.035Z" transform="translate(14.394 178.192)" fill="#1977d6" fill-rule="evenodd"/>
        <path id="Path_4794" data-name="Path 4794" d="M75.6-171.606,3.606-130.041,75.6-88.476l71.993-41.565Z" transform="translate(14.394 178.606)" fill="#eaf4fd" fill-rule="evenodd"/>
        <path id="Path_4795" data-name="Path 4795" d="M147.591-130.041,75.6-88.476,3.606-130.041,75.6-171.606Zm-136.068,0L75.6-93.047l64.076-36.994L75.6-167.035Z" transform="translate(14.394 178.606)" fill="#1977d6" fill-rule="evenodd"/>
      </g>
    </g>
  </g>
</svg>
