<svg xmlns="http://www.w3.org/2000/svg" xmlns:xlink="http://www.w3.org/1999/xlink" viewBox="0 0 180 180">
  <defs>
    <style>
      .cls-1 {
        clip-path: url(#clip-restore_json);
      }

      .cls-2 {
        fill: #f2f2f2;
      }

      .cls-2, .cls-3, .cls-5, .cls-6 {
        fill-rule: evenodd;
      }

      .cls-3 {
        fill: #a3a9b8;
      }

      .cls-4, .cls-5 {
        fill: #f7f7f7;
      }

      .cls-6 {
        fill: #fff;
      }

      .cls-7 {
        fill: none;
      }
    </style>
    <clipPath id="clip-restore_json">
      <rect width="180" height="180"/>
    </clipPath>
  </defs>
  <g id="restore_json" data-name="restore json" class="cls-1">
    <g id="Group_3088" data-name="Group 3088">
      <path id="Path_5210" data-name="Path 5210" class="cls-2" d="M76.352-87.606l-72.746,42,72.746,42,72.746-42Z" transform="translate(14.394 177.817)"/>
      <path id="Path_5211" data-name="Path 5211" class="cls-3" d="M149.1-45.606l-72.746,42-72.746-42,72.746-42Zm-137.492,0L76.352-8.224,141.1-45.606,76.352-82.987Z" transform="translate(14.394 177.817)"/>
      <path id="Union_132" data-name="Union 132" class="cls-4" d="M-469.359-1822.983-424.3-1849l6.928,4-45.062,26.016Zm-17.32-10L-457.206-1850l6.928,4-29.473,17.016Zm-17.32-10L-486.651-1853l6.928,4-17.349,10.016Z" transform="translate(551.416 1976.211)"/>
      <path id="Path_5215" data-name="Path 5215" class="cls-5" d="M76.352-108.306l-39.318,22.7,39.318,22.7,39.318-22.7Z" transform="translate(14.394 177.817)"/>
      <path id="Path_5216" data-name="Path 5216" class="cls-3" d="M115.67-85.606l-39.318,22.7-39.318-22.7,39.318-22.7Zm-70.636,0L76.352-67.524,107.67-85.606,76.352-103.687Z" transform="translate(14.394 177.817)"/>
      <path id="Path_5217" data-name="Path 5217" class="cls-6" d="M76.352-171.606l-72.746,42,72.746,42,72.746-42Z" transform="translate(14.394 177.817)"/>
      <path id="Path_5218" data-name="Path 5218" class="cls-3" d="M149.1-129.606l-72.746,42-72.746-42,72.746-42Zm-137.492,0L76.352-92.224,141.1-129.606,76.352-166.987Z" transform="translate(14.394 177.817)"/>
      <path id="Union_131" data-name="Union 131" class="cls-4" d="M-469.359-1807l34.641-20,6.928,4-34.641,20Zm-17.32-10,27.713-16,6.928,4-27.713,16ZM-504-1827l45.033-26,6.928,4-45.033,26Z" transform="translate(551.416 1876.195)"/>
      <rect id="Rectangle_3739" data-name="Rectangle 3739" class="cls-7" width="180" height="180"/>
    </g>
  </g>
</svg>
