<svg xmlns="http://www.w3.org/2000/svg" xmlns:xlink="http://www.w3.org/1999/xlink" width="180" height="180" viewBox="0 0 180 180">
  <defs>
    <clipPath id="clip-restore_jason-active">
      <rect width="180" height="180"/>
    </clipPath>
  </defs>
  <g id="restore_jason-active" data-name="restore jason-active" clip-path="url(#clip-restore_jason-active)">
    <g id="Group_3087" data-name="Group 3087">
      <path id="Path_5210" data-name="Path 5210" d="M76.352-87.606l-72.746,42,72.746,42,72.746-42Z" transform="translate(14.394 177.817)" fill="#c0defc" fill-rule="evenodd"/>
      <path id="Path_5211" data-name="Path 5211" d="M149.1-45.606l-72.746,42-72.746-42,72.746-42Zm-137.492,0L76.352-8.224,141.1-45.606,76.352-82.987Z" transform="translate(14.394 177.817)" fill="#1977d6" fill-rule="evenodd"/>
      <path id="Union_130" data-name="Union 130" d="M-219.359-1822.983-174.3-1849l6.928,4-45.062,26.016Zm-17.32-10L-207.206-1850l6.928,4-29.473,17.016Zm-17.32-10L-236.651-1853l6.928,4-17.348,10.016Z" transform="translate(301.416 1976.211)" fill="#d0e8fa"/>
      <path id="Path_5215" data-name="Path 5215" d="M76.352-108.306l-39.318,22.7,39.318,22.7,39.318-22.7Z" transform="translate(14.394 177.817)" fill="#d0e8fa" fill-rule="evenodd"/>
      <path id="Path_5216" data-name="Path 5216" d="M115.67-85.606l-39.318,22.7-39.318-22.7,39.318-22.7Zm-70.636,0L76.352-67.524,107.67-85.606,76.352-103.687Z" transform="translate(14.394 177.817)" fill="#1977d6" fill-rule="evenodd"/>
      <path id="Path_5217" data-name="Path 5217" d="M76.352-171.606l-72.746,42,72.746,42,72.746-42Z" transform="translate(14.394 177.817)" fill="#eaf4fd" fill-rule="evenodd"/>
      <path id="Path_5218" data-name="Path 5218" d="M149.1-129.606l-72.746,42-72.746-42,72.746-42Zm-137.492,0L76.352-92.224,141.1-129.606,76.352-166.987Z" transform="translate(14.394 177.817)" fill="#1977d6" fill-rule="evenodd"/>
      <path id="Union_129" data-name="Union 129" d="M-219.359-1807l34.641-20,6.928,4-34.641,20Zm-17.32-10,27.713-16,6.928,4-27.713,16ZM-254-1827l45.033-26,6.928,4-45.033,26Z" transform="translate(301.416 1876.195)" fill="#d0e8fa"/>
      <rect id="Rectangle_3739" data-name="Rectangle 3739" width="180" height="180" fill="none"/>
    </g>
  </g>
</svg>
