<svg xmlns="http://www.w3.org/2000/svg" xmlns:xlink="http://www.w3.org/1999/xlink" width="180" height="180" viewBox="0 0 180 180">
  <defs>
    <clipPath id="clip-restore_mneminic-active">
      <rect width="180" height="180"/>
    </clipPath>
  </defs>
  <g id="restore_mneminic-active" data-name="restore mneminic-active" clip-path="url(#clip-restore_mneminic-active)">
    <g id="Group_3089" data-name="Group 3089">
      <path id="Path_5222" data-name="Path 5222" d="M76.352-87.606l-72.746,42,72.746,42,72.746-42Z" transform="translate(14.394 177.833)" fill="#c0defc" fill-rule="evenodd"/>
      <path id="Path_5223" data-name="Path 5223" d="M149.1-45.606l-72.746,42-72.746-42,72.746-42Zm-137.493,0L76.352-8.224,141.1-45.606,76.352-82.987Z" transform="translate(14.394 177.833)" fill="#1977d6" fill-rule="evenodd"/>
      <path id="Union_134" data-name="Union 134" d="M-219.359-1572.983-174.3-1599l6.928,4-45.061,26.016Zm-17.32-10L-207.206-1600l6.928,4-29.473,17.016Zm-17.32-10L-236.651-1603l6.928,4-17.348,10.017Z" transform="translate(301.431 1726.203)" fill="#d0e8fa"/>
      <path id="Path_5230" data-name="Path 5230" d="M65.959-129.606l-31.177,18-31.177-18,31.177-18Zm-54.354,0,23.177,13.382,23.177-13.382L34.783-142.987Z" transform="translate(14.394 177.833)" fill="#00bda9" fill-rule="evenodd"/>
      <path id="Path_5231" data-name="Path 5231" d="M34.783-147.606l-31.177,18,31.177,18,31.177-18Z" transform="translate(14.394 177.833)" fill="#d0e8fa" fill-rule="evenodd"/>
      <path id="Path_5235" data-name="Path 5235" d="M76.337-171.614l-31.177,18,31.177,18,31.177-18Z" transform="translate(14.394 177.833)" fill="#eaf4fd" fill-rule="evenodd"/>
      <path id="Path_5239" data-name="Path 5239" d="M76.337-123.614l-31.177,18,31.177,18,31.177-18Z" transform="translate(14.394 177.833)" fill="#eaf4fd" fill-rule="evenodd"/>
      <path id="Path_5243" data-name="Path 5243" d="M117.907-147.614l-31.177,18,31.177,18,31.177-18Z" transform="translate(14.394 177.833)" fill="#d0e8fa" fill-rule="evenodd"/>
      <path id="Union_135" data-name="Union 135" d="M-212.445-1537l31.177-18,31.177,18-31.177,18Zm8,0,23.177,13.382L-158.091-1537l-23.177-13.38ZM-254-1560.992l31.177-18,31.177,18-31.177,18Zm8,0,23.177,13.381,23.177-13.381-23.177-13.381Zm75.124-.008,31.177-18,31.177,18-31.177,18Zm8,0,23.177,13.38,23.178-13.38-23.178-13.381Zm-49.569-24,31.177-18,31.177,18-31.177,18Zm8,0,23.177,13.381L-158.091-1585l-23.177-13.381Z" transform="translate(272 1609.219)" fill="#1977d6"/>
      <rect id="Rectangle_3739" data-name="Rectangle 3739" width="180" height="180" fill="none"/>
    </g>
  </g>
</svg>
